<svg xmlns="http://www.w3.org/2000/svg" viewBox="0 0 40 50">
  <!-- Bookshelf -->
  <rect x="4" y="2" width="32" height="46" fill="#4e342e"/>
  <!-- Shelves -->
  <rect x="6" y="4" width="28" height="12" fill="#5d4037"/>
  <rect x="6" y="18" width="28" height="12" fill="#5d4037"/>
  <rect x="6" y="32" width="28" height="12" fill="#5d4037"/>
  <!-- Books -->
  <rect x="8" y="6" width="4" height="8" fill="#d32f2f"/>
  <rect x="13" y="6" width="3" height="8" fill="#1976d2"/>
  <rect x="17" y="6" width="5" height="8" fill="#388e3c"/>
  <rect x="23" y="6" width="4" height="8" fill="#7b1fa2"/>
  <rect x="28" y="6" width="4" height="8" fill="#f57c00"/>
  
  <rect x="8" y="20" width="5" height="8" fill="#512da8"/>
  <rect x="14" y="20" width="4" height="8" fill="#c2185b"/>
  <rect x="19" y="20" width="3" height="8" fill="#0097a7"/>
  <rect x="23" y="20" width="5" height="8" fill="#689f38"/>
  <rect x="29" y="20" width="3" height="8" fill="#e64a19"/>
  
  <rect x="8" y="34" width="4" height="8" fill="#fbc02d"/>
  <rect x="13" y="34" width="5" height="8" fill="#0288d1"/>
  <rect x="19" y="34" width="4" height="8" fill="#5d4037"/>
  <rect x="24" y="34" width="3" height="8" fill="#00796b"/>
  <rect x="28" y="34" width="4" height="8" fill="#d84315"/>
</svg>
