<svg xmlns="http://www.w3.org/2000/svg" viewBox="0 0 64 64" width="64" height="64">
  <defs>
    <radialGradient id="crackGrad" cx="50%" cy="50%" r="50%">
      <stop offset="0%" stop-color="#8d6e63"/>
      <stop offset="70%" stop-color="#6d4c41"/>
      <stop offset="100%" stop-color="#4e342e"/>
    </radialGradient>
  </defs>
  
  <!-- Floor tile -->
  <rect x="2" y="2" width="60" height="60" fill="url(#crackGrad)" rx="2"/>
  
  <!-- Cracks (heavy fracturing) -->
  <path d="M 32 10 L 28 32 L 35 50 L 40 60" stroke="#3e2723" stroke-width="3" fill="none"/>
  <path d="M 15 25 L 32 32 L 50 28" stroke="#3e2723" stroke-width="2.5" fill="none"/>
  <path d="M 20 45 L 35 50 L 55 48" stroke="#3e2723" stroke-width="2" fill="none"/>
  <path d="M 10 32 L 20 35 L 18 50" stroke="#3e2723" stroke-width="2" fill="none"/>
  <path d="M 45 15 L 50 32 L 52 45" stroke="#3e2723" stroke-width="2" fill="none"/>
  
  <!-- Smaller cracks -->
  <path d="M 25 20 L 30 25" stroke="#4e342e" stroke-width="1.5" fill="none" opacity="0.7"/>
  <path d="M 42 40 L 48 42" stroke="#4e342e" stroke-width="1.5" fill="none" opacity="0.7"/>
  <path d="M 15 50 L 18 55" stroke="#4e342e" stroke-width="1.5" fill="none" opacity="0.7"/>
  
  <!-- Highlights (about to collapse) -->
  <path d="M 32 10 L 28 32" stroke="#ffab00" stroke-width="1" fill="none" opacity="0.3"/>
  <path d="M 28 32 L 35 50" stroke="#ffab00" stroke-width="1" fill="none" opacity="0.3"/>
  
  <!-- Debris -->
  <circle cx="25" cy="30" r="2" fill="#3e2723" opacity="0.6"/>
  <circle cx="40" cy="42" r="1.5" fill="#3e2723" opacity="0.6"/>
  <circle cx="32" cy="55" r="1.8" fill="#3e2723" opacity="0.6"/>
</svg>
