<svg xmlns="http://www.w3.org/2000/svg" viewBox="0 0 96 96" width="96" height="96">
  <!-- Mine body with shading -->
  <circle cx="48" cy="48" r="24" fill="#455a64"/>
  <circle cx="48" cy="48" r="22" fill="#37474f"/>
  
  <!-- Directional spikes -->
  <polygon points="48,20 44,30 52,30" fill="#607d8b"/>
  <polygon points="48,76 44,66 52,66" fill="#607d8b"/>
  <polygon points="20,48 30,44 30,52" fill="#607d8b"/>
  <polygon points="76,48 66,44 66,52" fill="#607d8b"/>
  <polygon points="31,31 35,37 37,35" fill="#607d8b"/>
  <polygon points="65,31 61,37 59,35" fill="#607d8b"/>
  <polygon points="31,65 35,59 37,61" fill="#607d8b"/>
  <polygon points="65,65 61,59 59,61" fill="#607d8b"/>
  
  <!-- Warning light (layered) -->
  <circle cx="48" cy="48" r="9" fill="#ff5252" opacity="0.3"/>
  <circle cx="48" cy="48" r="6" fill="#ff1744"/>
  <circle cx="48" cy="48" r="3" fill="#ff8a80"/>
</svg>