<svg width="64" height="64" viewBox="0 0 64 64" xmlns="http://www.w3.org/2000/svg">
  <defs>
    <radialGradient id="boss2WalkBody" cx="50%" cy="50%" r="50%">
      <stop offset="0%" stop-color="#e6e6ff"/>
      <stop offset="80%" stop-color="#4b0082"/>
      <stop offset="100%" stop-color="#1a0033"/>
    </radialGradient>
    <radialGradient id="boss2WalkAura" cx="50%" cy="50%" r="60%">
      <stop offset="0%" stop-color="#e6e6ff" stop-opacity="0.7"/>
      <stop offset="100%" stop-color="#8a2be2" stop-opacity="0"/>
    </radialGradient>
    <linearGradient id="boss2WalkEyes" x1="0" y1="0" x2="1" y2="1">
      <stop offset="0%" stop-color="#00ffff"/>
      <stop offset="100%" stop-color="#8a2be2"/>
    </linearGradient>
  </defs>
  <ellipse cx="32" cy="32" rx="28" ry="28" fill="url(#boss2WalkAura)"/>
  <circle cx="32" cy="32" r="20" fill="url(#boss2WalkBody)" stroke="#e6e6ff" stroke-width="2"/>
  <ellipse cx="32" cy="40" rx="12" ry="6" fill="#e6e6ff" opacity="0.2"/>
  <ellipse cx="20" cy="30" rx="4" ry="7" fill="#e6e6ff" stroke="#1a0033" stroke-width="1.5"/>
  <ellipse cx="44" cy="30" rx="4" ry="7" fill="#e6e6ff" stroke="#1a0033" stroke-width="1.5"/>
  <ellipse cx="22" cy="32" rx="1.2" ry="2.2" fill="url(#boss2WalkEyes)"/>
  <ellipse cx="42" cy="32" rx="1.2" ry="2.2" fill="url(#boss2WalkEyes)"/>
  <ellipse cx="32" cy="46" rx="7" ry="2.5" fill="#1a0033"/>
  <ellipse cx="32" cy="46" rx="4" ry="1.2" fill="#e6e6ff" opacity="0.5"/>
  <path d="M16 52 Q32 62 48 52" stroke="#1a0033" stroke-width="3" fill="none"/>
  <ellipse cx="32" cy="18" rx="9" ry="3" fill="#e6e6ff" opacity="0.5"/>
  <ellipse cx="32" cy="18" rx="4.5" ry="1.2" fill="#1a0033" opacity="0.7"/>
  <ellipse cx="32" cy="12" rx="3" ry="1" fill="#8a2be2" opacity="0.7"/>
  <ellipse cx="18" cy="54" rx="2.5" ry="1.2" fill="#8a2be2" opacity="0.5"/>
  <ellipse cx="46" cy="54" rx="2.5" ry="1.2" fill="#8a2be2" opacity="0.5"/>
  <ellipse cx="32" cy="58" rx="6" ry="1.5" fill="#00ffff" opacity="0.2"/>
</svg>
