<svg width="64" height="64" viewBox="0 0 64 64" xmlns="http://www.w3.org/2000/svg">
  <defs>
    <radialGradient id="boss1Body" cx="50%" cy="50%" r="50%">
      <stop offset="0%" stop-color="#fffbe6"/>
      <stop offset="80%" stop-color="#e6b800"/>
      <stop offset="100%" stop-color="#a67c00"/>
    </radialGradient>
    <radialGradient id="boss1Aura" cx="50%" cy="50%" r="60%">
      <stop offset="0%" stop-color="#fffbe6" stop-opacity="0.7"/>
      <stop offset="100%" stop-color="#ffd700" stop-opacity="0"/>
    </radialGradient>
    <linearGradient id="boss1Eyes" x1="0" y1="0" x2="1" y2="1">
      <stop offset="0%" stop-color="#ff0000"/>
      <stop offset="100%" stop-color="#ff8800"/>
    </linearGradient>
  </defs>
  <ellipse cx="32" cy="32" rx="28" ry="28" fill="url(#boss1Aura)"/>
  <circle cx="32" cy="32" r="20" fill="url(#boss1Body)" stroke="#fffbe6" stroke-width="2"/>
  <ellipse cx="32" cy="40" rx="12" ry="6" fill="#fffbe6" opacity="0.2"/>
  <ellipse cx="22" cy="28" rx="4" ry="7" fill="#fffbe6" stroke="#a67c00" stroke-width="1.5"/>
  <ellipse cx="42" cy="28" rx="4" ry="7" fill="#fffbe6" stroke="#a67c00" stroke-width="1.5"/>
  <ellipse cx="24" cy="30" rx="1.2" ry="2.2" fill="url(#boss1Eyes)"/>
  <ellipse cx="40" cy="30" rx="1.2" ry="2.2" fill="url(#boss1Eyes)"/>
  <ellipse cx="32" cy="44" rx="6" ry="2.5" fill="#a67c00"/>
  <ellipse cx="32" cy="44" rx="3.5" ry="1.2" fill="#fffbe6" opacity="0.5"/>
  <path d="M18 50 Q32 60 46 50" stroke="#a67c00" stroke-width="3" fill="none"/>
  <ellipse cx="32" cy="16" rx="8" ry="3" fill="#fffbe6" opacity="0.5"/>
  <ellipse cx="32" cy="16" rx="4" ry="1.2" fill="#a67c00" opacity="0.7"/>
  <ellipse cx="32" cy="10" rx="2.5" ry="1" fill="#ffd700" opacity="0.7"/>
</svg>
