<svg width="96" height="96" viewBox="0 0 96 96" xmlns="http://www.w3.org/2000/svg">
  <defs>
    <radialGradient id="b3core" cx="50%" cy="40%" r="50%">
      <stop offset="0%" stop-color="#ffefef" stop-opacity="0.9"/>
      <stop offset="40%" stop-color="#7a1b4a" stop-opacity="0.95"/>
      <stop offset="100%" stop-color="#140012" stop-opacity="1"/>
    </radialGradient>
    <radialGradient id="b3glow" cx="50%" cy="50%" r="60%">
      <stop offset="0%" stop-color="#a64dff" stop-opacity="0.9"/>
      <stop offset="100%" stop-color="#2b002f" stop-opacity="0"/>
    </radialGradient>
    <linearGradient id="b3eye" x1="0" y1="0" x2="1" y2="1">
      <stop offset="0%" stop-color="#00ffe6"/>
      <stop offset="100%" stop-color="#7a1bff"/>
    </linearGradient>
    <filter id="b3blur"><feGaussianBlur stdDeviation="4"/></filter>
  </defs>
  <!-- Aura -->
  <ellipse cx="48" cy="48" rx="44" ry="30" fill="url(#b3glow)" opacity="0.7"/>
  <!-- Main body -->
  <g transform="translate(48,48)">
    <path d="M -36 8 C -28 -26 28 -26 36 8 C 16 34 -16 34 -36 8 Z" fill="url(#b3core)" stroke="#6b1a4a" stroke-width="2"/>
    <!-- Tentacle crowns -->
    <g fill="#2b002f" stroke="#7a1b4a" stroke-width="1.2">
      <path d="M -26 -6 C -34 -18 -18 -26 -10 -12"/>
      <path d="M -8 -14 C -2 -26 10 -24 14 -12"/>
      <path d="M 8 -16 C 18 -28 32 -18 26 -6"/>
    </g>
    <!-- Slimy mouth area -->
    <ellipse cx="0" cy="22" rx="20" ry="10" fill="#310025" opacity="0.9"/>
    <ellipse cx="0" cy="18" rx="10" ry="4" fill="#b24bd6" opacity="0.85" filter="url(#b3blur)"/>
    <!-- Eyes -->
    <ellipse cx="-14" cy="0" rx="4" ry="6" fill="url(#b3eye)"/>
    <ellipse cx="14" cy="0" rx="4" ry="6" fill="url(#b3eye)"/>
    <circle cx="-14" cy="0" r="1.2" fill="#001"/>
    <circle cx="14" cy="0" r="1.2" fill="#001"/>
    <!-- Dripping goo -->
    <path d="M -28 24 C -26 30 -24 30 -22 26" stroke="#3a0033" stroke-width="2" fill="none"/>
    <path d="M 22 26 C 24 32 26 32 28 26" stroke="#3a0033" stroke-width="2" fill="none"/>
    <!-- Subtle highlights -->
    <path d="M -34 6 C -12 -4 12 -4 34 6" stroke="#ffffff22" stroke-width="1" fill="none"/>
  </g>
</svg>