<svg xmlns="http://www.w3.org/2000/svg" viewBox="0 0 96 96">
  <!-- Shadow -->
  <ellipse cx="48" cy="88" rx="30" ry="8" fill="rgba(0,0,0,0.4)"/>
  
  <!-- Body (crystal formation) -->
  <defs>
    <linearGradient id="crystalGrad" x1="0%" y1="0%" x2="0%" y2="100%">
      <stop offset="0%" style="stop-color:#90caf9;stop-opacity:1" />
      <stop offset="100%" style="stop-color:#1e88e5;stop-opacity:1" />
    </linearGradient>
  </defs>
  
  <!-- Main crystal body -->
  <path d="M 48 20 L 70 50 L 60 80 L 36 80 L 26 50 Z" fill="url(#crystalGrad)" stroke="#0d47a1" stroke-width="2"/>
  
  <!-- Inner glow -->
  <path d="M 48 28 L 62 50 L 55 72 L 41 72 L 34 50 Z" fill="#64b5f6" opacity="0.6"/>
  
  <!-- Crystal facets -->
  <line x1="48" y1="20" x2="48" y2="80" stroke="#bbdefb" stroke-width="1.5" opacity="0.5"/>
  <line x1="26" y1="50" x2="70" y2="50" stroke="#bbdefb" stroke-width="1.5" opacity="0.5"/>
  <line x1="36" y1="35" x2="60" y2="65" stroke="#bbdefb" stroke-width="1" opacity="0.4"/>
  <line x1="60" y1="35" x2="36" y2="65" stroke="#bbdefb" stroke-width="1" opacity="0.4"/>
  
  <!-- Glowing core -->
  <circle cx="48" cy="50" r="8" fill="#82b1ff" opacity="0.8"/>
  <circle cx="48" cy="50" r="5" fill="#ffffff" opacity="0.9"/>
  
  <!-- Side crystals -->
  <path d="M 20 45 L 28 50 L 20 55 Z" fill="#64b5f6" stroke="#1976d2" stroke-width="1"/>
  <path d="M 76 45 L 68 50 L 76 55 Z" fill="#64b5f6" stroke="#1976d2" stroke-width="1"/>
  
  <!-- Floating shards -->
  <path d="M 38 25 L 42 30 L 38 35 L 34 30 Z" fill="#90caf9" opacity="0.7"/>
  <path d="M 58 25 L 62 30 L 58 35 L 54 30 Z" fill="#90caf9" opacity="0.7"/>
  
  <!-- Energy particles -->
  <circle cx="30" cy="40" r="2" fill="#82b1ff" opacity="0.8"/>
  <circle cx="66" cy="60" r="2" fill="#82b1ff" opacity="0.8"/>
  <circle cx="48" cy="75" r="1.5" fill="#ffffff" opacity="0.9"/>
</svg>
