<svg xmlns="http://www.w3.org/2000/svg" viewBox="0 0 96 96">
  <!-- Shadow -->
  <ellipse cx="48" cy="88" rx="32" ry="8" fill="rgba(0,0,0,0.4)"/>
  
  <!-- Body (rusty metal) -->
  <ellipse cx="48" cy="55" rx="35" ry="38" fill="#8d6e63"/>
  <ellipse cx="48" cy="55" rx="30" ry="33" fill="#a1887f"/>
  
  <!-- Metal plates -->
  <rect x="20" y="35" width="56" height="8" fill="#6d4c41" rx="2"/>
  <rect x="20" y="55" width="56" height="8" fill="#6d4c41" rx="2"/>
  <rect x="20" y="75" width="56" height="8" fill="#6d4c41" rx="2"/>
  
  <!-- Rivets -->
  <circle cx="25" cy="39" r="3" fill="#424242"/>
  <circle cx="71" cy="39" r="3" fill="#424242"/>
  <circle cx="25" cy="59" r="3" fill="#424242"/>
  <circle cx="71" cy="59" r="3" fill="#424242"/>
  
  <!-- Head -->
  <rect x="35" y="18" width="26" height="28" fill="#795548" rx="3"/>
  <rect x="37" y="20" width="22" height="24" fill="#8d6e63" rx="2"/>
  
  <!-- Eyes (glowing) -->
  <rect x="40" y="28" width="6" height="10" fill="#ff6f00" rx="1"/>
  <rect x="50" y="28" width="6" height="10" fill="#ff6f00" rx="1"/>
  <circle cx="43" cy="33" r="2" fill="#ffab00"/>
  <circle cx="53" cy="33" r="2" fill="#ffab00"/>
  
  <!-- Antenna -->
  <line x1="48" y1="18" x2="48" y2="10" stroke="#616161" stroke-width="2"/>
  <circle cx="48" cy="8" r="3" fill="#ff5252"/>
  
  <!-- Arms (simple pistons) -->
  <rect x="12" y="45" width="12" height="20" fill="#795548" rx="2"/>
  <rect x="72" y="45" width="12" height="20" fill="#795548" rx="2"/>
  <circle cx="18" cy="68" r="5" fill="#616161"/>
  <circle cx="78" cy="68" r="5" fill="#616161"/>
  
  <!-- Damage marks -->
  <path d="M 30 50 L 35 55 L 32 58" stroke="#3e2723" stroke-width="2" fill="none"/>
  <path d="M 60 48 L 63 53" stroke="#3e2723" stroke-width="2" fill="none"/>
</svg>
